<?xml version="1.0" encoding="UTF-8"?>
<svg width="28px" height="23px" viewBox="0 0 28 23" version="1.1" xmlns="http://www.w3.org/2000/svg" xmlns:xlink="http://www.w3.org/1999/xlink">
    <title>ic-twitter-white</title>
    <g id="Page-1" stroke="none" stroke-width="1" fill="none" fill-rule="evenodd">
        <g id="ic-twitter-white" fill="#FFFFFF" fill-rule="nonzero">
            <path d="M8.97584055,22.5806452 C19.2015128,22.5806452 24.7934199,13.8940461 24.7934199,6.36171872 C24.7934199,6.11488291 24.7885424,5.86915835 24.777487,5.62476759 C25.8628754,4.82024502 26.8064933,3.8163422 27.5508961,2.67329553 C26.5547101,3.1269578 25.4827617,3.43280754 24.3582458,3.57061773 C25.5060649,2.86511843 26.3872521,1.74841128 26.8028082,0.417431533 C25.7284753,1.0703629 24.5391436,1.5452524 23.2728573,1.8009792 C22.2584623,0.693051913 20.8136625,8.17124146e-14 19.2149529,8.17124146e-14 C16.1445631,8.17124146e-14 13.6548031,2.55293389 13.6548031,5.70000759 C13.6548031,6.14744612 13.7036857,6.58232615 13.7989579,6.99975776 C9.17874124,6.76159061 5.08170895,4.49316807 2.34005735,1.04402336 C1.86217864,1.88622149 1.58720056,2.86511843 1.58720056,3.90903067 C1.58720056,5.88682918 2.56864574,7.63268433 4.06102766,8.65403582 C3.14927541,8.6252513 2.29247541,8.36830191 1.5431954,7.94086808 C1.54189475,7.96465131 1.54189475,7.98854582 1.54189475,8.01355179 C1.54189475,10.7746456 3.45850378,13.0794102 6.00202377,13.6020885 C5.53520056,13.7323414 5.04377347,13.8025802 4.53652185,13.8025802 C4.17841089,13.8025802 3.83005475,13.7662384 3.49145346,13.6997782 C4.1992212,15.9645331 6.2514225,17.6125875 8.68492954,17.659043 C6.78186894,19.1879581 4.3849967,20.0990616 1.78034637,20.0990616 C1.3317322,20.0990616 0.889296054,20.0728331 0.454121864,20.0201539 C2.91461735,21.6368676 5.83586635,22.5806452 8.97584055,22.5806452" id="Fill-1"></path>
        </g>
    </g>
</svg>