<svg width="97" height="30" viewBox="0 0 97 30" fill="none" xmlns="http://www.w3.org/2000/svg">
<path fill-rule="evenodd" clip-rule="evenodd" d="M45.6182 0.955078C45.0195 0.955078 44.5341 1.44045 44.5341 2.03919V5.34678C44.5341 5.94551 45.0195 6.43088 45.6182 6.43088H48.9258C49.5245 6.43088 50.0099 5.94551 50.0099 5.34678V2.03919C50.0099 1.44045 49.5245 0.955078 48.9258 0.955078H45.6182ZM21.2126 9.48029C21.2126 8.90449 20.7458 8.43771 20.17 8.43771H16.9206C16.3448 8.43771 15.878 8.90449 15.878 9.48029V10.6761C14.5392 9.02346 12.5937 7.8938 9.81133 7.8938C4.22578 7.8938 0 12.4752 0 18.5628C0 24.6505 4.22578 29.2319 9.81133 29.2319C12.5937 29.2319 14.5601 28.1022 15.878 26.4705V27.6663C15.878 28.2421 16.3448 28.7089 16.9206 28.7089H20.17C20.7458 28.7089 21.2126 28.2421 21.2126 27.6663V9.48029ZM10.8155 12.9773C13.9325 12.9773 16.0454 15.3621 16.0454 18.5628C16.0454 21.7635 13.9325 24.1484 10.8155 24.1484C7.61476 24.1484 5.58556 21.6589 5.58556 18.5628C5.58556 15.4667 7.61476 12.9773 10.8155 12.9773ZM37.9591 7.8938C35.4697 7.8938 33.5241 8.75151 32.248 10.6552V9.48029C32.248 8.90449 31.7812 8.43771 31.2054 8.43771H27.9979C27.4221 8.43771 26.9553 8.90449 26.9553 9.48029V27.6663C26.9553 28.2421 27.4221 28.7089 27.9979 28.7089H31.3728C31.9486 28.7089 32.4154 28.2421 32.4154 27.6663V17.6633C32.4154 14.6509 34.1517 13.1028 36.683 13.1028C37.3266 13.1028 38.0337 13.1874 38.6897 13.3361C39.3603 13.4882 40.0892 13.081 40.1916 12.401L40.6769 9.17856C40.7509 8.68701 40.4686 8.20415 39.9833 8.09637C39.4027 7.96743 38.7361 7.8938 37.9591 7.8938ZM48.9421 8.43771C49.5179 8.43771 49.9846 8.90449 49.9846 9.48029V27.6663C49.9846 28.2421 49.5179 28.7089 48.9421 28.7089H45.5672C44.9914 28.7089 44.5246 28.2421 44.5246 27.6663V9.48029C44.5246 8.90449 44.9914 8.43771 45.5672 8.43771H48.9421ZM74.9118 9.86005C75.1792 9.17632 74.675 8.43771 73.9408 8.43771H70.4448C70.0067 8.43771 69.6153 8.7116 69.4653 9.1232L64.4225 22.956L59.4205 9.1257C59.2711 8.7128 58.8791 8.43771 58.4401 8.43771H54.7636C54.0279 8.43771 53.5236 9.17927 53.794 9.86352L60.9821 28.0495C61.1394 28.4475 61.5238 28.7089 61.9517 28.7089H66.8278C67.257 28.7089 67.6424 28.4458 67.7988 28.0461L74.9118 9.86005ZM76.8962 18.6256C76.8962 12.2451 81.0801 7.8938 87.1468 7.8938C92.9834 7.8938 96.9791 12.2242 97 18.5419C97 18.8401 96.9906 19.1665 96.9739 19.4764C96.946 19.9971 96.5067 20.3828 95.9853 20.3828H82.5236C83.1093 23.3116 85.1595 24.5877 87.7326 24.5877C89.1828 24.5877 90.7327 24.1033 92.0531 23.2403C92.522 22.9338 93.1562 22.9698 93.5335 23.384L95.3595 25.389C95.746 25.8135 95.7194 26.4753 95.2626 26.8231C93.0959 28.4729 90.4471 29.2319 87.4188 29.2319C81.2056 29.2319 76.8962 25.0061 76.8962 18.6256ZM91.519 16.6591C91.017 14.0651 89.448 12.6007 87.105 12.6007C84.5319 12.6007 83.0257 14.1488 82.5445 16.6591H91.519Z" fill="white"/>
</svg>
