<svg width="476" height="141" viewBox="0 0 476 141" fill="none" xmlns="http://www.w3.org/2000/svg">
<path d="M457.596 140.682H17.9679C8.29611 140.682 0.382812 132.768 0.382812 123.097V17.5859C0.382812 7.91408 8.29611 0.000776411 17.9679 0.000776411H457.596C467.267 0.000776411 475.181 7.91408 475.181 17.5859V123.097C475.181 132.768 467.267 140.682 457.596 140.682Z" fill="black"/>
<path d="M457.596 0.000776411H17.9679C8.29611 0.000776411 0.382812 7.91408 0.382812 17.5859V123.097C0.382812 132.768 8.29611 140.682 17.9679 140.682H457.596C467.267 140.682 475.181 132.768 475.181 123.097V17.5859C475.181 7.91408 467.267 0.000776411 457.596 0.000776411ZM457.596 2.81439C465.741 2.81439 472.367 9.44187 472.367 17.5859V123.097C472.367 131.242 465.741 137.869 457.596 137.869H17.9679C9.82391 137.869 3.19643 131.242 3.19643 123.097V17.5859C3.19643 9.44187 9.82391 2.81439 17.9679 2.81439H457.596Z" fill="#A6A6A6"/>
<path d="M167.154 36.0271C167.154 38.9736 166.281 41.3202 164.534 43.0706C162.549 45.152 159.962 46.1934 156.781 46.1934C153.736 46.1934 151.146 45.1383 149.016 43.0252C146.883 40.9136 145.818 38.2952 145.818 35.171C145.818 32.0454 146.883 29.4284 149.016 27.3154C151.146 25.2038 153.736 24.1473 156.781 24.1473C158.293 24.1473 159.739 24.4427 161.113 25.0322C162.487 25.623 163.589 26.4073 164.413 27.3896L162.558 29.2455C161.161 27.5764 159.238 26.7425 156.781 26.7425C154.56 26.7425 152.639 27.5229 151.018 29.0848C149.397 30.6485 148.587 32.676 148.587 35.171C148.587 37.666 149.397 39.6936 151.018 41.2572C152.639 42.8191 154.56 43.5996 156.781 43.5996C159.138 43.5996 161.102 42.8149 162.675 41.2435C163.696 40.2197 164.287 38.7967 164.444 36.9693H156.781V34.4346H167.007C167.106 34.9857 167.154 35.5146 167.154 36.0271" fill="white"/>
<path d="M167.155 36.0269H166.803C166.8 38.9063 165.959 41.1428 164.286 42.8218L164.282 42.8246L164.281 42.8274C162.359 44.837 159.888 45.8373 156.782 45.8415C153.817 45.8373 151.336 44.8261 149.264 42.7764C147.197 40.7225 146.175 38.2152 146.171 35.1709C146.175 32.1251 147.197 29.6192 149.264 27.5667C151.336 25.5156 153.817 24.503 156.782 24.4988C158.248 24.4988 159.644 24.7847 160.975 25.3549C162.308 25.9292 163.36 26.6818 164.144 27.6163L164.414 27.3895L164.165 27.1408L162.31 28.9981L162.559 29.2454L162.83 29.0203C161.368 27.2685 159.316 26.3853 156.782 26.3906C154.478 26.3878 152.452 27.2108 150.776 28.8321C149.083 30.4588 148.233 32.6003 148.236 35.1709C148.233 37.7415 149.083 39.883 150.776 41.5096C152.452 43.1309 154.478 43.9539 156.782 43.9511C159.216 43.9553 161.291 43.1295 162.924 41.492C164.015 40.3982 164.634 38.8831 164.796 36.9994L164.829 36.6174H157.134V34.7861H167.008V34.4344L166.661 34.4963C166.758 35.0295 166.803 35.5363 166.803 36.0269H167.155H167.506C167.506 35.4923 167.457 34.943 167.354 34.3714L167.302 34.0827H156.43V36.9691V37.3208H164.445V36.9691L164.095 36.9389C163.94 38.7086 163.376 40.0412 162.427 40.9947C160.916 42.5003 159.061 43.2435 156.782 43.2477C154.643 43.2449 152.828 42.5084 151.263 41.0042C149.714 39.5052 148.943 37.5916 148.939 35.1709C148.943 32.7501 149.714 30.8365 151.263 29.3375C152.828 27.8333 154.643 27.0968 156.782 27.094C159.16 27.0996 160.956 27.8854 162.29 29.4722L162.537 29.7663L164.663 27.6381L164.89 27.4102L164.683 27.164C163.819 26.1339 162.668 25.3162 161.252 24.7091C159.835 24.1003 158.339 23.7954 156.782 23.7954C153.655 23.7926 150.957 24.8917 148.768 27.0666C146.572 29.2373 145.465 31.9658 145.467 35.1709C145.465 38.3745 146.572 41.1044 148.77 43.2765C150.957 45.4501 153.655 46.5477 156.782 46.5449C160.038 46.5477 162.739 45.4662 164.789 43.3135L164.535 43.0705L164.783 43.3191C166.605 41.4987 167.509 39.0396 167.506 36.0269H167.155Z" fill="white"/>
<path d="M183.365 27.2129H173.756V33.9037H182.422V36.4395H173.756V43.1303H183.365V45.7227H171.046V24.6205H183.365V27.2129Z" fill="white"/>
<path d="M183.365 27.2129V26.8612H173.403V34.2553H182.069V36.0866L173.403 36.0877V43.4818H183.013V45.3708H171.397V24.9722H183.013V27.2129H183.365V26.8612V27.2129H183.716V24.6205V24.2688H170.694V46.0742H183.716V43.1301V42.7784H174.106V36.7911H182.773V33.9036V33.5519H174.106V27.5646H183.716V27.2129H183.365" fill="white"/>
<path d="M194.8 45.7227H192.087V27.2129H186.193V24.6205H200.694V27.2129H194.8V45.7227Z" fill="white"/>
<path d="M194.799 45.7225V45.3708H192.438V26.8612H186.544V24.9722H200.341V26.8612H194.447V45.7225H194.799V45.3708V45.7225H195.151V27.5646H201.045V24.6205V24.2688H185.84V27.2129V27.5646H191.734V46.0742H194.799H195.151V45.7225H194.799" fill="white"/>
<path d="M211.187 45.7227V24.6205H213.897V45.7227H211.187Z" fill="white"/>
<path d="M211.186 45.7225H211.537V24.9722H213.545V45.3708H211.186V45.7225H211.537H211.186V46.0742H213.896H214.248V24.2688H211.186H210.834V46.0742H211.186V45.7225Z" fill="white"/>
<path d="M225.923 45.7227H223.21V27.2129H217.316V24.6205H231.817V27.2129H225.923V45.7227Z" fill="white"/>
<path d="M225.925 45.7225V45.3708H223.564V26.8612H217.67V24.9722H231.467V26.8612H225.574V45.7225H225.925V45.3708V45.7225H226.277V27.5646H232.171V24.6205V24.2688H216.967V27.2129V27.5646H222.86V46.0742H225.925H226.277V45.7225H225.925" fill="white"/>
<path d="M245.797 41.2284C247.359 42.8096 249.27 43.5996 251.53 43.5996C253.79 43.5996 255.702 42.8096 257.262 41.2284C258.825 39.6471 259.608 37.6259 259.608 35.171C259.608 32.7161 258.825 30.6949 257.262 29.1137C255.702 27.5324 253.79 26.7425 251.53 26.7425C249.27 26.7425 247.359 27.5324 245.797 29.1137C244.238 30.6949 243.455 32.7161 243.455 35.171C243.455 37.6259 244.238 39.6471 245.797 41.2284ZM259.268 42.995C257.193 45.1284 254.613 46.1934 251.53 46.1934C248.444 46.1934 245.866 45.1284 243.796 42.995C241.719 40.864 240.687 38.2554 240.687 35.171C240.687 32.0866 241.719 29.4777 243.796 27.3471C245.866 25.2133 248.444 24.1473 251.53 24.1473C254.597 24.1473 257.17 25.2189 259.254 27.3608C261.335 29.5026 262.377 32.1059 262.377 35.171C262.377 38.2554 261.338 40.864 259.268 42.995Z" fill="white"/>
<path d="M245.798 41.2282L245.548 41.4755C247.168 43.12 249.189 43.9553 251.531 43.9511C253.872 43.9553 255.896 43.12 257.513 41.4755C259.144 39.8295 259.964 37.7 259.961 35.1709C259.964 32.6418 259.144 30.5122 257.513 28.8663C255.896 27.2217 253.872 26.3864 251.531 26.3906C249.189 26.3864 247.168 27.2217 245.548 28.8663C243.922 30.5122 243.1 32.6418 243.104 35.1709C243.1 37.7 243.922 39.8295 245.548 41.4755L245.798 41.2282L246.048 40.981C244.556 39.4627 243.81 37.5529 243.808 35.1709C243.81 32.7888 244.556 30.8791 246.048 29.3608C247.554 27.8428 249.352 27.0983 251.531 27.094C253.709 27.0983 255.511 27.8428 257.013 29.3608C258.508 30.8791 259.254 32.7888 259.256 35.1709C259.254 37.5529 258.508 39.4627 257.013 40.981C255.511 42.4989 253.709 43.2435 251.531 43.2477C249.352 43.2435 247.554 42.4989 246.048 40.981L245.798 41.2282ZM259.269 42.9948L259.017 42.7504C257.001 44.8167 254.535 45.8373 251.531 45.8415C248.527 45.8373 246.061 44.8167 244.048 42.7504L244.038 42.7395L244.048 42.7504C242.035 40.6771 241.042 38.1769 241.039 35.1709C241.042 32.1649 242.035 29.6646 244.048 27.5913C246.061 25.5251 248.527 24.503 251.531 24.4988C254.515 24.503 256.976 25.5293 259.004 27.6065C261.023 29.6892 262.022 32.1856 262.026 35.1709C262.022 38.1769 261.026 40.6771 259.017 42.7504L259.269 42.9948L259.522 43.2393C261.654 41.0496 262.732 38.3334 262.73 35.1709C262.732 32.0263 261.649 29.3157 259.508 27.1162C257.365 24.9082 254.68 23.7916 251.531 23.7954C248.366 23.7916 245.673 24.9029 243.544 27.1025V27.1011C241.408 29.2922 240.333 32.0084 240.336 35.1709C240.333 38.3334 241.408 41.0496 243.544 43.2407L243.553 43.2505L243.544 43.2393C245.673 45.4388 248.366 46.5477 251.531 46.5449C254.695 46.5477 257.388 45.4388 259.522 43.2393L259.269 42.9948" fill="white"/>
<path d="M266.182 45.7227V24.6205H269.482L279.738 41.0366H279.855L279.738 36.9698V24.6205H282.451V45.7227H279.621L268.891 28.5111H268.775L268.891 32.5792V45.7227H266.182Z" fill="white"/>
<path d="M266.184 45.7225H266.535V24.9722H269.289L279.544 41.3882H279.856H280.217L280.091 36.9645V24.9722H282.101V45.3708H279.818L269.088 28.1593H268.776H268.415L268.541 32.5848V45.3708H266.184V45.7225H266.535H266.184V46.0742H268.893H269.245V32.5735L269.128 28.5015L268.776 28.511V28.8627H268.893V28.511L268.595 28.6981L279.427 46.0742H282.453H282.804V24.2688H279.739H279.388V36.974L279.504 41.046L279.856 41.0365V40.6848H279.739V41.0365L280.038 40.8497L269.679 24.2688H266.184H265.832V46.0742H266.184V45.7225Z" fill="white"/>
<path d="M376.479 105.51H383.042V61.5426H376.479V105.51ZM435.59 77.3805L428.067 96.4424H427.842L420.034 77.3805H412.965L424.673 104.023L417.998 118.843H424.845L442.888 77.3805H435.59ZM398.373 100.516C396.22 100.516 393.224 99.4414 393.224 96.7818C393.224 93.3882 396.959 92.0873 400.181 92.0873C403.068 92.0873 404.422 92.7094 406.177 93.5588C405.667 97.6308 402.161 100.516 398.373 100.516V100.516ZM399.164 76.4186C394.413 76.4186 389.492 78.5123 387.456 83.1505L393.28 85.5822C394.525 83.1505 396.843 82.3578 399.277 82.3578C402.671 82.3578 406.121 84.3952 406.177 88.0153V88.4672C404.988 87.7884 402.445 86.7706 399.333 86.7706C393.055 86.7706 386.661 90.2201 386.661 96.6689C386.661 102.552 391.81 106.342 397.578 106.342C401.992 106.342 404.422 104.362 405.952 102.044H406.177V105.437H412.511V88.5797C412.511 80.7751 406.687 76.4186 399.164 76.4186V76.4186ZM358.606 82.7327H349.272V67.6619H358.606C363.512 67.6619 366.298 71.7241 366.298 75.1971C366.298 78.6044 363.512 82.7327 358.606 82.7327ZM358.437 61.5426H342.712V105.51H349.272V88.852H358.437C365.71 88.852 372.86 83.5859 372.86 75.1971C372.86 66.8087 365.71 61.5426 358.437 61.5426ZM272.689 100.524C268.155 100.524 264.359 96.728 264.359 91.5143C264.359 86.2458 268.155 82.3922 272.689 82.3922C277.165 82.3922 280.677 86.2458 280.677 91.5143C280.677 96.728 277.165 100.524 272.689 100.524V100.524ZM280.224 79.8424H279.997C278.525 78.0863 275.69 76.4998 272.121 76.4998C264.642 76.4998 257.787 83.0721 257.787 91.5143C257.787 99.9003 264.642 106.416 272.121 106.416C275.69 106.416 278.525 104.829 279.997 103.017H280.224V105.17C280.224 110.894 277.165 113.953 272.235 113.953C268.212 113.953 265.719 111.063 264.698 108.627L258.976 111.006C260.62 114.973 264.983 119.846 272.235 119.846C279.941 119.846 286.457 115.312 286.457 104.264V77.4065H280.224V79.8424ZM290.989 105.51H297.562V61.5412H290.989V105.51ZM307.251 91.0047C307.081 85.2248 311.727 82.2793 315.07 82.2793C317.678 82.2793 319.887 83.5817 320.622 85.4531L307.251 91.0047ZM327.649 86.019C326.404 82.675 322.606 76.4998 314.843 76.4998C307.137 76.4998 300.735 82.5625 300.735 91.4581C300.735 99.8441 307.081 106.416 315.58 106.416C322.437 106.416 326.404 102.223 328.046 99.7874L322.947 96.3872C321.248 98.8807 318.923 100.524 315.58 100.524C312.237 100.524 309.858 98.9936 308.327 95.9915L328.328 87.7184L327.649 86.019ZM168.299 81.0895V87.4353H183.484C183.03 91.0047 181.841 93.6108 180.027 95.4242C177.818 97.6347 174.362 100.071 168.299 100.071C158.95 100.071 151.641 92.535 151.641 83.186C151.641 73.8371 158.95 66.3005 168.299 66.3005C173.342 66.3005 177.024 68.2841 179.744 70.8339L184.22 66.3581C180.424 62.731 175.381 59.9547 168.299 59.9547C155.493 59.9547 144.728 70.3806 144.728 83.186C144.728 95.9915 155.493 106.416 168.299 106.416C175.212 106.416 180.424 104.151 184.503 99.9003C188.696 95.7073 190 89.8149 190 85.056C190 83.5817 189.887 82.2231 189.659 81.0895H168.299ZM207.264 100.524C202.73 100.524 198.82 96.7842 198.82 91.4581C198.82 86.0753 202.73 82.3922 207.264 82.3922C211.796 82.3922 215.706 86.0753 215.706 91.4581C215.706 96.7842 211.796 100.524 207.264 100.524V100.524ZM207.264 76.4998C198.99 76.4998 192.248 82.789 192.248 91.4581C192.248 100.071 198.99 106.416 207.264 106.416C215.536 106.416 222.278 100.071 222.278 91.4581C222.278 82.789 215.536 76.4998 207.264 76.4998ZM240.019 100.524C235.487 100.524 231.576 96.7842 231.576 91.4581C231.576 86.0753 235.487 82.3922 240.019 82.3922C244.551 82.3922 248.461 86.0753 248.461 91.4581C248.461 96.7842 244.551 100.524 240.019 100.524ZM240.019 76.4998C231.745 76.4998 225.004 82.789 225.004 91.4581C225.004 100.071 231.745 106.416 240.019 106.416C248.291 106.416 255.033 100.071 255.033 91.4581C255.033 82.789 248.291 76.4998 240.019 76.4998Z" fill="white"/>
<path d="M37.347 113.914L37.0857 113.664C36.0622 112.581 35.458 110.9 35.458 108.722V109.235V31.4522C35.458 31.4452 35.458 31.4399 35.458 31.4343C35.458 31.441 35.458 31.4466 35.458 31.4536V31.9675C35.458 29.6096 36.1625 27.8336 37.3428 26.7686L80.918 70.3427L37.347 113.914ZM35.458 31.4301C35.458 31.2363 35.4633 31.0481 35.4731 30.8628C35.4633 31.0467 35.458 31.2363 35.458 31.4301ZM35.4731 30.8543C35.4731 30.8519 35.4731 30.849 35.4742 30.8462C35.4731 30.849 35.4731 30.8519 35.4731 30.8543ZM35.4742 30.8297C35.4742 30.8283 35.4742 30.8269 35.4742 30.8255C35.4742 30.8269 35.4742 30.8283 35.4742 30.8297Z" fill="url(#paint0_linear)"/>
<path d="M95.4403 85.3867L95.7716 85.1986L112.98 75.4209C114.621 74.4882 115.714 73.3574 116.26 72.161C115.716 73.3574 114.622 74.4896 112.98 75.4223L95.7716 85.2L95.4403 85.3867V85.3867ZM95.4445 84.8715L80.9175 70.342L95.4431 55.8149L112.98 65.7779C115.207 67.0433 116.457 68.6742 116.666 70.3405C116.666 70.342 116.666 70.3448 116.666 70.3472C116.457 72.0097 115.207 73.642 112.98 74.9071L95.4445 84.8715" fill="url(#paint1_linear)"/>
<path d="M40.4518 115.574C39.2346 115.574 38.1725 115.179 37.3442 114.431L37.3456 114.43C38.1739 115.177 39.2374 115.574 40.4547 115.574C40.5602 115.574 40.6674 115.571 40.7761 115.566C40.666 115.571 40.5573 115.574 40.4518 115.574V115.574ZM40.4532 115.059C39.236 115.06 38.1739 114.663 37.3456 113.916V113.915L80.9166 70.3436L95.4436 84.8731L44.3934 113.879C42.9809 114.68 41.6427 115.059 40.4532 115.059V115.059ZM37.3333 114.422C37.2563 114.352 37.1807 114.277 37.1064 114.2L37.3333 114.422Z" fill="url(#paint2_linear)"/>
<path d="M80.9175 70.3438L37.3423 26.7696C38.1705 26.0237 39.2313 25.628 40.4471 25.628C41.6397 25.628 42.979 26.0085 44.3943 26.8108L95.4431 55.8167L80.9175 70.3438V70.3438ZM95.7716 55.4886L44.3943 26.2973C42.979 25.4947 41.6397 25.1142 40.4471 25.1142C40.4415 25.1142 40.4376 25.1142 40.432 25.1142C40.439 25.1142 40.4443 25.1142 40.4527 25.1142C41.6425 25.1142 42.9804 25.4933 44.3943 26.2959L95.7716 55.4886V55.4886Z" fill="url(#paint3_linear)"/>
<path d="M40.7773 115.566C41.883 115.503 43.1073 115.123 44.3945 114.393L95.4406 85.3886L44.3945 114.393C43.1083 115.124 41.883 115.503 40.7773 115.566V115.566ZM37.3454 114.431L37.3345 114.422C37.3383 114.425 37.3425 114.429 37.3454 114.431ZM37.1076 114.201L37.0854 114.179V114.178C37.0939 114.186 37.1006 114.194 37.1076 114.201Z" fill="black"/>
<path d="M95.4409 85.3867L95.7722 85.1986L95.4409 85.3867Z" fill="url(#paint4_linear)"/>
<path d="M40.4553 115.574C39.2381 115.574 38.1745 115.177 37.3463 114.43L37.3449 114.431C37.3421 114.428 37.3378 114.425 37.334 114.422L37.1071 114.2C37.1001 114.193 37.0934 114.185 37.085 114.177L37.3463 113.916C38.1745 114.663 39.2367 115.06 40.4539 115.059C41.6434 115.059 42.9816 114.68 44.394 113.879L95.4443 84.8731L95.7714 85.2002L95.4401 85.3883L44.394 114.393C43.1068 115.122 41.8825 115.503 40.7768 115.566C40.6681 115.571 40.5608 115.574 40.4553 115.574" fill="url(#paint5_linear)"/>
<path d="M37.0842 114.182C36.0608 113.099 35.4565 111.417 35.4565 109.24V109.238C35.4565 111.417 36.0608 113.097 37.0842 114.18V114.182" fill="black"/>
<path d="M37.0857 114.176C36.0622 113.093 35.458 111.413 35.458 109.234V108.722C35.458 110.899 36.0622 112.58 37.0857 113.663L37.347 113.913L37.0857 114.176" fill="url(#paint6_linear)"/>
<path d="M37.085 114.176L37.3463 113.913V113.914L37.085 114.176" fill="url(#paint7_linear)"/>
<path d="M116.259 72.1641C116.53 71.5704 116.666 70.9605 116.666 70.3503C116.666 70.3493 116.666 70.3479 116.666 70.3479C116.666 70.9591 116.53 71.569 116.259 72.1641Z" fill="black"/>
<path d="M95.7709 85.1992L95.4438 84.8721L112.979 74.9077C115.206 73.6426 116.457 72.0104 116.666 70.3479C116.666 70.9581 116.529 71.5679 116.259 72.1616C115.713 73.3581 114.62 74.4888 112.979 75.4216L95.7709 85.1992Z" fill="url(#paint8_linear)"/>
<path d="M116.667 70.3438V70.3423C116.665 68.5026 115.436 66.6632 112.98 65.2673L95.7719 55.4896H95.7705L95.7719 55.4886L112.98 65.2659C115.438 66.6618 116.669 68.504 116.667 70.3438Z" fill="#404040"/>
<path d="M116.664 70.3438C116.455 68.6774 115.205 67.0465 112.978 65.7811L95.4409 55.8181L95.768 55.491H95.7694L112.978 65.2687C115.433 66.6646 116.663 68.504 116.664 70.3438Z" fill="url(#paint9_linear)"/>
<path d="M35.4565 31.4375C35.4565 31.4361 35.4565 31.4347 35.4565 31.4333C35.4565 31.4347 35.4565 31.4361 35.4565 31.4375ZM35.4717 30.866C35.4717 30.8632 35.4717 30.8604 35.4717 30.8575C35.4717 30.8604 35.4717 30.8632 35.4717 30.866ZM35.4727 30.8495C35.4727 30.8438 35.4727 30.8386 35.4727 30.8329C35.4727 30.8386 35.4727 30.8438 35.4727 30.8495ZM35.4727 30.8287C35.6764 27.2157 37.641 25.1287 40.4201 25.1164C39.2152 25.1234 38.1657 25.5191 37.3441 26.2594V26.258L37.3343 26.2678C37.2478 26.3459 37.1655 26.4286 37.0842 26.5137C36.161 27.4903 35.5786 28.9534 35.4727 30.8287Z" fill="#404040"/>
<path d="M35.4575 31.9668V31.453C35.4575 31.4459 35.4575 31.4403 35.4575 31.4336C35.4575 31.4322 35.4575 31.4308 35.4575 31.4294C35.4575 31.2356 35.4628 31.0461 35.4726 30.8621C35.4726 30.8593 35.4726 30.8565 35.4726 30.8537C35.4726 30.8512 35.4726 30.8484 35.4737 30.8456C35.4737 30.84 35.4737 30.8347 35.4737 30.8291C35.4737 30.8276 35.4737 30.8262 35.4737 30.8248C35.5796 28.9496 36.162 27.4865 37.0853 26.5098L37.3424 26.768C36.162 27.8329 35.4575 29.609 35.4575 31.9668V31.9668ZM37.3354 26.264L37.3452 26.2542C37.3424 26.2584 37.3382 26.2612 37.3354 26.264Z" fill="url(#paint10_linear)"/>
<path d="M95.4434 55.8164L44.3945 26.8105C42.9793 26.0082 41.64 25.6277 40.4474 25.6277C39.2315 25.6277 38.1708 26.0234 37.3425 26.7693L37.0854 26.5112C37.1667 26.4261 37.249 26.3434 37.3355 26.2653C37.3383 26.2625 37.3425 26.2597 37.3454 26.2569C38.1669 25.5166 39.2164 25.1209 40.4213 25.1139C40.4242 25.1139 40.428 25.1139 40.4322 25.1139C40.4379 25.1139 40.4417 25.1139 40.4474 25.1139C41.64 25.1139 42.9793 25.4944 44.3945 26.297L95.7719 55.4883L95.7705 55.4893L95.4434 55.8164Z" fill="url(#paint11_linear)"/>
<defs>
<linearGradient id="paint0_linear" x1="77.0542" y1="30.6317" x2="18.0298" y2="89.6561" gradientUnits="userSpaceOnUse">
<stop stop-color="#00A0FF"/>
<stop offset="0.00657445" stop-color="#00A1FF"/>
<stop offset="0.2601" stop-color="#00BEFF"/>
<stop offset="0.5122" stop-color="#00D2FF"/>
<stop offset="0.7604" stop-color="#00DFFF"/>
<stop offset="1" stop-color="#00E3FF"/>
</linearGradient>
<linearGradient id="paint1_linear" x1="119.38" y1="70.3441" x2="34.2783" y2="70.3441" gradientUnits="userSpaceOnUse">
<stop stop-color="#FFE000"/>
<stop offset="0.4087" stop-color="#FFBD00"/>
<stop offset="0.7754" stop-color="#FFA500"/>
<stop offset="1" stop-color="#FF9C00"/>
</linearGradient>
<linearGradient id="paint2_linear" x1="87.6995" y1="78.4162" x2="7.65805" y2="158.458" gradientUnits="userSpaceOnUse">
<stop stop-color="#FF3A44"/>
<stop offset="1" stop-color="#C31162"/>
</linearGradient>
<linearGradient id="paint3_linear" x1="26.0481" y1="0.620216" x2="61.7898" y2="36.362" gradientUnits="userSpaceOnUse">
<stop stop-color="#32A071"/>
<stop offset="0.0685" stop-color="#2DA771"/>
<stop offset="0.4762" stop-color="#15CF74"/>
<stop offset="0.8009" stop-color="#06E775"/>
<stop offset="1" stop-color="#00F076"/>
</linearGradient>
<linearGradient id="paint4_linear" x1="119.379" y1="70.3437" x2="34.2812" y2="70.3437" gradientUnits="userSpaceOnUse">
<stop stop-color="#CCB300"/>
<stop offset="0.4087" stop-color="#CC9700"/>
<stop offset="0.7754" stop-color="#CC8400"/>
<stop offset="1" stop-color="#CC7D00"/>
</linearGradient>
<linearGradient id="paint5_linear" x1="87.7002" y1="78.4162" x2="7.65872" y2="158.458" gradientUnits="userSpaceOnUse">
<stop stop-color="#CC2E36"/>
<stop offset="1" stop-color="#9C0E4E"/>
</linearGradient>
<linearGradient id="paint6_linear" x1="77.0542" y1="30.631" x2="18.0297" y2="89.6554" gradientUnits="userSpaceOnUse">
<stop stop-color="#008DE0"/>
<stop offset="0.00657445" stop-color="#008DE0"/>
<stop offset="0.2601" stop-color="#00A7E0"/>
<stop offset="0.5122" stop-color="#00B8E0"/>
<stop offset="0.7604" stop-color="#00C4E0"/>
<stop offset="1" stop-color="#00C7E0"/>
</linearGradient>
<linearGradient id="paint7_linear" x1="87.7007" y1="78.4164" x2="7.66312" y2="158.459" gradientUnits="userSpaceOnUse">
<stop stop-color="#E0333C"/>
<stop offset="1" stop-color="#AB0F56"/>
</linearGradient>
<linearGradient id="paint8_linear" x1="119.379" y1="70.3447" x2="34.2776" y2="70.3447" gradientUnits="userSpaceOnUse">
<stop stop-color="#E0C500"/>
<stop offset="0.4087" stop-color="#E0A600"/>
<stop offset="0.7754" stop-color="#E09100"/>
<stop offset="1" stop-color="#E08900"/>
</linearGradient>
<linearGradient id="paint9_linear" x1="119.377" y1="70.3473" x2="34.2761" y2="70.3473" gradientUnits="userSpaceOnUse">
<stop stop-color="#FFE840"/>
<stop offset="0.4087" stop-color="#FFCE40"/>
<stop offset="0.7754" stop-color="#FFBC40"/>
<stop offset="1" stop-color="#FFB540"/>
</linearGradient>
<linearGradient id="paint10_linear" x1="77.0561" y1="30.631" x2="18.0322" y2="89.6589" gradientUnits="userSpaceOnUse">
<stop stop-color="#40B8FF"/>
<stop offset="0.00657445" stop-color="#40B9FF"/>
<stop offset="0.2601" stop-color="#40CEFF"/>
<stop offset="0.5122" stop-color="#40DDFF"/>
<stop offset="0.7604" stop-color="#40E7FF"/>
<stop offset="1" stop-color="#40EAFF"/>
</linearGradient>
<linearGradient id="paint11_linear" x1="26.0483" y1="0.619916" x2="61.7901" y2="36.3616" gradientUnits="userSpaceOnUse">
<stop stop-color="#65B895"/>
<stop offset="0.0685" stop-color="#62BD95"/>
<stop offset="0.4762" stop-color="#50DB97"/>
<stop offset="0.8009" stop-color="#44ED98"/>
<stop offset="1" stop-color="#40F498"/>
</linearGradient>
</defs>
</svg>
