<svg width="421" height="141" viewBox="0 0 421 141" fill="none" xmlns="http://www.w3.org/2000/svg">
<g clip-path="url(#clip0)">
<path d="M387.346 0.000457213H33.5337C32.244 0.000457213 30.9698 0.000457213 29.6835 0.00749126C28.6068 0.0145253 27.5386 0.0349592 26.4515 0.0521574C24.0899 0.0799482 21.7338 0.287714 19.4038 0.67365C17.077 1.06799 14.8231 1.81143 12.7183 2.87882C10.6161 3.95525 8.69529 5.35395 7.0255 7.0242C5.34694 8.68974 3.94773 10.6149 2.88167 12.7256C1.81267 14.8321 1.07143 17.0894 0.683533 19.4196C0.291951 21.7469 0.0812375 24.1009 0.0532829 26.4607C0.0206449 27.539 0.0171982 28.6209 0 29.6994V110.993C0.0171982 112.085 0.0206449 113.143 0.0532829 114.235C0.0812461 116.595 0.29196 118.949 0.683533 121.276C1.07036 123.607 1.81165 125.866 2.88167 127.973C3.94724 130.077 5.34665 131.995 7.0255 133.651C8.68896 135.328 10.611 136.728 12.7183 137.796C14.8231 138.867 17.0767 139.614 19.4038 140.015C21.7342 140.398 24.09 140.606 26.4515 140.637C27.5386 140.661 28.6068 140.674 29.6835 140.674C30.9697 140.681 32.2441 140.681 33.5337 140.681H387.346C388.61 140.681 389.895 140.681 391.159 140.674C392.23 140.674 393.33 140.661 394.401 140.637C396.758 140.607 399.11 140.399 401.435 140.015C403.77 139.612 406.031 138.864 408.146 137.796C410.252 136.727 412.172 135.328 413.834 133.651C415.509 131.988 416.911 130.072 417.99 127.973C419.052 125.864 419.786 123.606 420.167 121.276C420.559 118.948 420.778 116.595 420.82 114.235C420.834 113.143 420.834 112.085 420.834 110.993C420.861 109.715 420.861 108.444 420.861 107.146V33.5392C420.861 32.2513 420.861 30.9736 420.834 29.6994C420.834 28.6209 420.834 27.539 420.82 26.4606C420.778 24.1006 420.559 21.747 420.167 19.4195C419.785 17.0907 419.051 14.8335 417.99 12.7255C415.819 8.49475 412.376 5.05099 408.146 2.87851C406.031 1.81372 403.77 1.07048 401.435 0.673334C399.11 0.285697 396.758 0.077859 394.401 0.051665C393.33 0.034502 392.23 0.0138922 391.159 0.00703404C389.895 0 388.61 0 387.346 0V0.000457213Z" fill="#A6A6A6"/>
<path d="M29.7007 137.604C28.6291 137.604 27.5834 137.59 26.5203 137.567C24.3179 137.538 22.1206 137.346 19.9465 136.993C17.9192 136.644 15.9554 135.994 14.1197 135.066C12.3008 134.145 10.6419 132.938 9.20641 131.491C7.75015 130.06 6.53775 128.401 5.61725 126.579C4.68661 124.745 4.04255 122.78 3.70751 120.751C3.34569 118.57 3.14993 116.366 3.12192 114.156C3.09963 113.414 3.07043 110.945 3.07043 110.945V29.6997C3.07043 29.6997 3.10153 27.268 3.1221 26.5535C3.14892 24.3472 3.34354 22.1462 3.70427 19.9694C4.03993 17.9349 4.68449 15.9636 5.61563 14.1238C6.53275 12.3031 7.73842 10.6427 9.1859 9.20717C10.6318 7.75795 12.296 6.54452 14.118 5.61112C15.9494 4.68573 17.9096 4.04085 19.9327 3.69807C22.114 3.34133 24.3189 3.14845 26.5289 3.12107L29.7024 3.07812H391.142L394.353 3.12279C396.543 3.14881 398.728 3.33997 400.889 3.69462C402.933 4.0417 404.913 4.69109 406.766 5.62142C410.416 7.50249 413.386 10.4785 415.259 14.1324C416.176 15.9595 416.81 17.9147 417.142 19.9317C417.507 22.1263 417.711 24.3446 417.753 26.569C417.763 27.565 417.763 28.6349 417.763 29.6997C417.791 31.0185 417.791 32.2739 417.791 33.5395V107.146C417.791 108.424 417.791 109.671 417.763 110.928C417.763 112.071 417.763 113.119 417.749 114.197C417.708 116.382 417.507 118.561 417.148 120.716C416.82 122.76 416.179 124.741 415.249 126.59C414.322 128.392 413.117 130.037 411.677 131.463C410.24 132.918 408.579 134.133 406.755 135.059C404.908 135.995 402.93 136.647 400.889 136.993C398.715 137.348 396.518 137.54 394.315 137.567C393.285 137.59 392.206 137.604 391.159 137.604L387.346 137.611L29.7007 137.604Z" fill="black"/>
<path d="M87.1136 71.401C87.1515 68.4655 87.9312 65.5873 89.3803 63.0341C90.8294 60.4809 92.9008 58.3357 95.4017 56.7982C93.8129 54.5291 91.717 52.6618 89.2803 51.3445C86.8436 50.0272 84.1333 49.2962 81.3647 49.2096C75.4588 48.5896 69.7333 52.7436 66.7237 52.7436C63.6559 52.7436 59.0222 49.2711 54.0325 49.3738C50.805 49.478 47.6596 50.4166 44.9027 52.0979C42.1458 53.7793 39.8714 56.1461 38.3012 58.9677C31.4993 70.7442 36.5729 88.0516 43.0885 97.5708C46.3485 102.232 50.1584 107.439 55.1436 107.254C60.0219 107.052 61.8439 104.144 67.7324 104.144C73.5663 104.144 75.2757 107.254 80.362 107.137C85.5967 107.052 88.8948 102.455 92.0404 97.7494C94.3826 94.4281 96.185 90.7573 97.3807 86.873C94.3395 85.5867 91.7442 83.4337 89.9184 80.6824C88.0927 77.931 87.1172 74.7031 87.1136 71.401V71.401Z" fill="white"/>
<path d="M77.5054 42.948C80.3595 39.5217 81.7657 35.1177 81.4252 30.6714C77.0646 31.1294 73.0367 33.2134 70.144 36.5083C68.7297 38.1179 67.6465 39.9905 66.9563 42.019C66.2661 44.0475 65.9824 46.1922 66.1216 48.3304C68.3026 48.3528 70.4603 47.8801 72.4322 46.9478C74.4041 46.0154 76.1387 44.6478 77.5054 42.948Z" fill="white"/>
<path d="M148.779 95.4507H132.131L128.133 107.255H121.082L136.85 63.5811H144.176L159.945 107.255H152.773L148.779 95.4507ZM133.856 90.0035H147.051L140.546 70.8453H140.364L133.856 90.0035Z" fill="white"/>
<path d="M193.998 91.3365C193.998 101.232 188.702 107.589 180.71 107.589C178.685 107.695 176.672 107.229 174.9 106.243C173.128 105.258 171.67 103.794 170.691 102.018H170.54V117.79H164.004V75.4137H170.331V80.7099H170.451C171.474 78.9427 172.957 77.486 174.743 76.4947C176.528 75.5035 178.549 75.0148 180.59 75.0806C188.671 75.0806 193.998 81.4689 193.998 91.3365ZM187.28 91.3365C187.28 84.8898 183.949 80.6515 178.866 80.6515C173.872 80.6515 170.513 84.9791 170.513 91.3365C170.513 97.7524 173.872 102.049 178.866 102.049C183.949 102.049 187.28 97.8417 187.28 91.3365Z" fill="white"/>
<path d="M229.046 91.3365C229.046 101.232 223.75 107.589 215.757 107.589C213.733 107.695 211.719 107.229 209.947 106.243C208.175 105.258 206.717 103.794 205.739 102.018H205.587V117.79H199.051V75.4137H205.378V80.7099H205.498C206.521 78.9427 208.005 77.486 209.79 76.4947C211.575 75.5035 213.596 75.0147 215.637 75.0806C223.719 75.0806 229.046 81.4689 229.046 91.3365ZM222.328 91.3365C222.328 84.8898 218.996 80.6515 213.913 80.6515C208.919 80.6515 205.56 84.9791 205.56 91.3365C205.56 97.7523 208.919 102.049 213.913 102.049C218.996 102.049 222.328 97.8416 222.328 91.3365H222.328Z" fill="white"/>
<path d="M252.208 95.0869C252.692 99.4179 256.899 102.262 262.649 102.262C268.158 102.262 272.122 99.4177 272.122 95.5126C272.122 92.1226 269.731 90.0929 264.071 88.7018L258.411 87.3383C250.391 85.4011 246.668 81.6506 246.668 75.5645C246.668 68.029 253.235 62.853 262.56 62.853C271.788 62.853 278.115 68.029 278.328 75.5645H271.73C271.335 71.206 267.732 68.5751 262.467 68.5751C257.202 68.5751 253.599 71.2369 253.599 75.1111C253.599 78.1988 255.9 80.0157 261.529 81.4066L266.341 82.5881C275.302 84.7072 279.025 88.3068 279.025 94.695C279.025 102.866 272.516 107.983 262.165 107.983C252.479 107.983 245.94 102.986 245.517 95.0865L252.208 95.0869Z" fill="white"/>
<path d="M293.131 67.8774V75.4129H299.186V80.5889H293.131V98.1431C293.131 100.87 294.344 102.141 297.006 102.141C297.724 102.128 298.442 102.078 299.156 101.99V107.135C297.959 107.358 296.742 107.46 295.525 107.437C289.079 107.437 286.564 105.016 286.564 98.8402V80.5889H281.935V75.4129H286.564V67.8774H293.131Z" fill="white"/>
<path d="M302.693 91.3358C302.693 81.3171 308.593 75.0215 317.795 75.0215C327.027 75.0215 332.9 81.317 332.9 91.3358C332.9 101.382 327.058 107.65 317.795 107.65C308.535 107.65 302.693 101.382 302.693 91.3358ZM326.24 91.3358C326.24 84.4632 323.091 80.4069 317.795 80.4069C312.499 80.4069 309.353 84.4941 309.353 91.3358C309.353 98.2359 312.499 102.261 317.795 102.261C323.091 102.261 326.24 98.2359 326.24 91.3358H326.24Z" fill="white"/>
<path d="M338.29 75.4134H344.524V80.8332H344.675C345.097 79.1405 346.088 77.6446 347.483 76.5969C348.878 75.5492 350.591 75.0137 352.334 75.0802C353.087 75.0776 353.839 75.1594 354.574 75.3241V81.4377C353.623 81.1471 352.631 81.0137 351.637 81.0427C350.687 81.0042 349.741 81.1716 348.862 81.5335C347.983 81.8953 347.193 82.443 346.546 83.139C345.899 83.835 345.41 84.6628 345.114 85.5655C344.817 86.4682 344.719 87.4245 344.826 88.3687V107.256H338.29L338.29 75.4134Z" fill="white"/>
<path d="M384.707 97.9027C383.828 103.683 378.199 107.65 370.996 107.65C361.733 107.65 355.984 101.444 355.984 91.4869C355.984 81.4991 361.764 75.0215 370.722 75.0215C379.531 75.0215 385.071 81.0732 385.071 90.7279V92.9672H362.582V93.3622C362.478 94.5341 362.625 95.7146 363.012 96.8254C363.4 97.9362 364.019 98.9519 364.829 99.8049C365.639 100.658 366.622 101.329 367.711 101.773C368.801 102.217 369.972 102.425 371.148 102.381C372.692 102.526 374.242 102.168 375.567 101.361C376.892 100.555 377.921 99.3415 378.501 97.9027L384.707 97.9027ZM362.613 88.3992H378.532C378.591 87.3455 378.431 86.2911 378.063 85.3021C377.695 84.313 377.126 83.4108 376.393 82.6519C375.659 81.8931 374.777 81.294 373.801 80.8923C372.825 80.4906 371.777 80.295 370.722 80.3176C369.657 80.3113 368.602 80.5158 367.617 80.9193C366.632 81.3229 365.737 81.9175 364.983 82.6688C364.229 83.4202 363.632 84.3134 363.225 85.297C362.818 86.2805 362.61 87.3349 362.613 88.3992V88.3992Z" fill="white"/>
<path d="M133.036 30.7084C134.407 30.6101 135.782 30.8171 137.062 31.3145C138.343 31.8119 139.497 32.5873 140.442 33.5849C141.386 34.5824 142.098 35.7771 142.525 37.0829C142.952 38.3886 143.084 39.7729 142.911 41.1358C142.911 47.8401 139.287 51.6939 133.036 51.6939H125.456V30.7084H133.036ZM128.716 48.7261H132.672C133.652 48.7846 134.631 48.6241 135.541 48.2561C136.45 47.8882 137.266 47.3221 137.929 46.5992C138.592 45.8762 139.085 45.0145 139.373 44.0768C139.661 43.1391 139.736 42.149 139.593 41.1786C139.726 40.212 139.643 39.228 139.351 38.2972C139.058 37.3663 138.564 36.5117 137.902 35.7945C137.241 35.0772 136.429 34.5152 135.525 34.1486C134.621 33.782 133.647 33.6199 132.672 33.674H128.716V48.7261Z" fill="white"/>
<path d="M146.592 43.7674C146.492 42.7266 146.611 41.6766 146.941 40.6845C147.271 39.6925 147.805 38.7804 148.508 38.0067C149.211 37.233 150.069 36.6148 151.025 36.1918C151.981 35.7688 153.015 35.5503 154.06 35.5503C155.106 35.5503 156.14 35.7688 157.096 36.1918C158.052 36.6148 158.909 37.233 159.612 38.0067C160.315 38.7804 160.849 39.6925 161.179 40.6845C161.509 41.6766 161.628 42.7266 161.529 43.7674C161.63 44.8092 161.513 45.8607 161.183 46.8544C160.854 47.848 160.321 48.7618 159.617 49.537C158.914 50.3122 158.056 50.9317 157.099 51.3556C156.142 51.7795 155.107 51.9985 154.06 51.9985C153.013 51.9985 151.978 51.7795 151.021 51.3556C150.064 50.9317 149.206 50.3122 148.503 49.537C147.8 48.7618 147.266 47.848 146.937 46.8544C146.608 45.8607 146.49 44.8092 146.592 43.7674V43.7674ZM158.314 43.7674C158.314 40.3345 156.772 38.327 154.065 38.327C151.349 38.327 149.82 40.3345 149.82 43.7674C149.82 47.2278 151.349 49.2198 154.065 49.2198C156.772 49.2198 158.314 47.214 158.314 43.7674H158.314Z" fill="white"/>
<path d="M181.385 51.6929H178.143L174.87 40.029H174.622L171.363 51.6929H168.152L163.786 35.856H166.956L169.793 47.9404H170.027L173.283 35.856H176.281L179.537 47.9404H179.785L182.608 35.856H185.733L181.385 51.6929Z" fill="white"/>
<path d="M189.405 35.856H192.414V38.3718H192.647C193.044 37.4682 193.712 36.7107 194.559 36.205C195.406 35.6992 196.39 35.4703 197.373 35.5503C198.144 35.4923 198.918 35.6085 199.637 35.8902C200.357 36.1719 201.004 36.6119 201.53 37.1776C202.057 37.7433 202.449 38.4202 202.678 39.1581C202.908 39.8961 202.968 40.6761 202.855 41.4406V51.6927H199.729V42.2254C199.729 39.6804 198.623 38.4147 196.312 38.4147C195.789 38.3904 195.267 38.4794 194.781 38.6758C194.295 38.8721 193.858 39.1711 193.499 39.5523C193.14 39.9335 192.867 40.3879 192.7 40.8842C192.533 41.3806 192.475 41.9072 192.53 42.428V51.6929H189.405L189.405 35.856Z" fill="white"/>
<path d="M207.835 29.6743H210.961V51.6935H207.835V29.6743Z" fill="white"/>
<path d="M215.304 43.7677C215.205 42.7269 215.324 41.6767 215.654 40.6847C215.984 39.6926 216.518 38.7804 217.221 38.0067C217.925 37.233 218.782 36.6148 219.738 36.1918C220.694 35.7688 221.728 35.5503 222.774 35.5503C223.819 35.5503 224.853 35.7688 225.809 36.1918C226.766 36.6148 227.623 37.233 228.326 38.0067C229.029 38.7804 229.563 39.6926 229.893 40.6847C230.223 41.6767 230.343 42.7269 230.243 43.7677C230.344 44.8095 230.227 45.8611 229.897 46.8547C229.568 47.8484 229.035 48.7621 228.331 49.5373C227.628 50.3125 226.77 50.9319 225.813 51.3558C224.856 51.7797 223.82 51.9987 222.774 51.9987C221.727 51.9987 220.692 51.7797 219.735 51.3558C218.777 50.9319 217.92 50.3125 217.216 49.5373C216.513 48.7621 215.979 47.8484 215.65 46.8547C215.321 45.8611 215.203 44.8095 215.304 43.7677V43.7677ZM227.027 43.7677C227.027 40.3348 225.484 38.3273 222.778 38.3273C220.061 38.3273 218.533 40.3348 218.533 43.7677C218.533 47.2281 220.061 49.2201 222.778 49.2201C225.484 49.2201 227.027 47.2143 227.027 43.7677H227.027Z" fill="white"/>
<path d="M233.534 47.2141C233.534 44.3634 235.657 42.72 239.424 42.4864L243.714 42.2391V40.8722C243.714 39.1995 242.608 38.255 240.472 38.255C238.727 38.255 237.518 38.8956 237.171 40.0153H234.146C234.465 37.2951 237.024 35.5503 240.616 35.5503C244.587 35.5503 246.826 37.5269 246.826 40.8722V51.6929H243.817V49.4673H243.57C243.068 50.2656 242.363 50.9164 241.528 51.3533C240.692 51.7901 239.755 51.9973 238.813 51.9538C238.148 52.0229 237.476 51.952 236.841 51.7456C236.205 51.5391 235.619 51.2018 235.122 50.7552C234.625 50.3086 234.226 49.7628 233.953 49.1529C233.679 48.543 233.537 47.8826 233.534 47.2141V47.2141ZM243.714 45.8609V44.5369L239.847 44.7842C237.666 44.9301 236.677 45.672 236.677 47.0682C236.677 48.4935 237.913 49.323 239.614 49.323C240.112 49.3734 240.615 49.3231 241.093 49.175C241.572 49.027 242.015 48.7843 242.398 48.4613C242.78 48.1383 243.094 47.7416 243.32 47.2949C243.546 46.8481 243.68 46.3605 243.714 45.8609V45.8609Z" fill="white"/>
<path d="M250.933 43.7682C250.933 38.764 253.506 35.5939 257.507 35.5939C258.497 35.5483 259.479 35.7853 260.339 36.2774C261.199 36.7694 261.901 37.496 262.364 38.3723H262.597V29.6743H265.723V51.6935H262.728V49.1914H262.48C261.982 50.0618 261.256 50.7794 260.379 51.2664C259.502 51.7535 258.509 51.9914 257.507 51.9545C253.478 51.9546 250.933 48.7844 250.933 43.7682ZM254.162 43.7682C254.162 47.1273 255.745 49.1485 258.393 49.1485C261.028 49.1485 262.656 47.0981 262.656 43.782C262.656 40.4813 261.01 38.4017 258.393 38.4017C255.762 38.4017 254.162 40.4366 254.162 43.7682H254.162Z" fill="white"/>
<path d="M278.654 43.7674C278.555 42.7266 278.674 41.6766 279.004 40.6845C279.334 39.6925 279.867 38.7804 280.571 38.0067C281.274 37.233 282.131 36.6148 283.087 36.1918C284.043 35.7688 285.077 35.5503 286.123 35.5503C287.168 35.5503 288.202 35.7688 289.158 36.1918C290.114 36.6148 290.971 37.233 291.675 38.0067C292.378 38.7804 292.912 39.6925 293.242 40.6845C293.572 41.6766 293.691 42.7266 293.591 43.7674C293.693 44.8092 293.575 45.8607 293.246 46.8544C292.917 47.848 292.383 48.7618 291.68 49.537C290.976 50.3122 290.119 50.9317 289.162 51.3556C288.205 51.7795 287.169 51.9985 286.123 51.9985C285.076 51.9985 284.041 51.7795 283.084 51.3556C282.127 50.9317 281.269 50.3122 280.565 49.537C279.862 48.7618 279.329 47.848 278.999 46.8544C278.67 45.8607 278.553 44.8092 278.654 43.7674V43.7674ZM290.376 43.7674C290.376 40.3345 288.834 38.327 286.128 38.327C283.411 38.327 281.883 40.3345 281.883 43.7674C281.883 47.2278 283.411 49.2198 286.128 49.2198C288.834 49.2198 290.376 47.214 290.376 43.7674Z" fill="white"/>
<path d="M297.786 35.856H300.795V38.3718H301.028C301.424 37.4682 302.093 36.7107 302.94 36.205C303.787 35.6992 304.771 35.4703 305.754 35.5503C306.525 35.4923 307.298 35.6085 308.018 35.8902C308.738 36.1719 309.385 36.6119 309.911 37.1776C310.437 37.7433 310.83 38.4202 311.059 39.1581C311.289 39.8961 311.349 40.6761 311.236 41.4406V51.6927H308.11V42.2254C308.11 39.6804 307.004 38.4147 304.693 38.4147C304.17 38.3904 303.647 38.4794 303.162 38.6758C302.676 38.8721 302.239 39.1711 301.88 39.5523C301.521 39.9335 301.248 40.3879 301.081 40.8842C300.914 41.3806 300.856 41.9072 300.911 42.428V51.6929H297.786V35.856Z" fill="white"/>
<path d="M328.896 31.9131V35.9281H332.328V38.5607H328.896V46.7042C328.896 48.3631 329.58 49.0895 331.136 49.0895C331.534 49.0882 331.932 49.0641 332.328 49.0173V51.6208C331.766 51.7212 331.198 51.7746 330.627 51.7805C327.152 51.7805 325.768 50.5577 325.768 47.5044V38.5606H323.253V35.928H325.768V31.9131H328.896Z" fill="white"/>
<path d="M336.596 29.6743H339.694V38.4016H339.941C340.357 37.4896 341.043 36.7278 341.907 36.2202C342.772 35.7125 343.771 35.4836 344.77 35.5647C345.537 35.5229 346.303 35.6509 347.014 35.9395C347.726 36.228 348.365 36.67 348.886 37.2339C349.407 37.7978 349.797 38.4698 350.028 39.2018C350.259 39.9338 350.326 40.7078 350.224 41.4687V51.6935H347.096V42.2398C347.096 39.7102 345.917 38.4291 343.709 38.4291C343.172 38.385 342.632 38.4589 342.126 38.6454C341.62 38.832 341.161 39.1269 340.782 39.5093C340.402 39.8917 340.11 40.3525 339.927 40.8595C339.744 41.3664 339.674 41.9072 339.722 42.4441V51.6934H336.596L336.596 29.6743Z" fill="white"/>
<path d="M368.449 47.4171C368.024 48.8645 367.104 50.1165 365.849 50.954C364.595 51.7916 363.086 52.1614 361.586 51.9988C360.543 52.0263 359.506 51.8265 358.548 51.4131C357.589 50.9998 356.732 50.3828 356.036 49.6051C355.34 48.8273 354.822 47.9074 354.517 46.9092C354.212 45.911 354.128 44.8584 354.271 43.8245C354.132 42.7874 354.217 41.7325 354.521 40.7313C354.826 39.7301 355.341 38.8059 356.034 38.0214C356.726 37.2368 357.579 36.6102 358.535 36.1839C359.49 35.7576 360.526 35.5416 361.573 35.5506C365.979 35.5506 368.638 38.5611 368.638 43.5342V44.6248H357.455V44.7999C357.406 45.3811 357.479 45.9661 357.669 46.5174C357.859 47.0687 358.163 47.5741 358.56 48.0013C358.957 48.4284 359.439 48.7679 359.975 48.9979C360.511 49.2279 361.089 49.3434 361.672 49.3369C362.42 49.4266 363.177 49.292 363.848 48.9501C364.519 48.6083 365.073 48.0746 365.44 47.417L368.449 47.4171ZM357.454 42.3133H365.454C365.493 41.7817 365.421 41.2479 365.242 40.7459C365.062 40.244 364.78 39.7851 364.413 39.3987C364.046 39.0123 363.602 38.707 363.11 38.5024C362.618 38.2978 362.088 38.1984 361.555 38.2107C361.015 38.2039 360.478 38.3054 359.978 38.5092C359.477 38.7129 359.022 39.0149 358.64 39.3973C358.258 39.7796 357.956 40.2346 357.752 40.7354C357.549 41.2362 357.447 41.7727 357.455 42.3133H357.454Z" fill="white"/>
</g>
<defs>
<clipPath id="clip0">
<rect width="420.861" height="140.681" fill="white"/>
</clipPath>
</defs>
</svg>
