<svg width="151" height="45" viewBox="0 0 151 45" fill="none" xmlns="http://www.w3.org/2000/svg">
<path fill-rule="evenodd" clip-rule="evenodd" d="M71.0138 0C70.0817 0 69.3262 0.755578 69.3262 1.68763V6.83656C69.3262 7.76862 70.0817 8.52419 71.0138 8.52419H76.1627C77.0948 8.52419 77.8504 7.76862 77.8504 6.83656V1.68763C77.8504 0.755578 77.0948 0 76.1627 0H71.0138ZM33.0216 13.2714C33.0216 12.3751 32.295 11.6485 31.3986 11.6485H26.3403C25.444 11.6485 24.7174 12.3751 24.7174 13.2714V15.133C22.6332 12.5603 19.6045 10.8017 15.2733 10.8017C6.57827 10.8017 0 17.9336 0 27.4102C0 36.8869 6.57827 44.0188 15.2733 44.0188C19.6045 44.0188 22.6657 42.2602 24.7174 39.7201V41.5816C24.7174 42.478 25.444 43.2046 26.3403 43.2046H31.3986C32.295 43.2046 33.0216 42.478 33.0216 41.5816V13.2714ZM16.8365 18.7152C21.6888 18.7152 24.9779 22.4277 24.9779 27.4102C24.9779 32.3928 21.6888 36.1053 16.8365 36.1053C11.8539 36.1053 8.69504 32.23 8.69504 27.4102C8.69504 22.5905 11.8539 18.7152 16.8365 18.7152ZM59.091 10.8017C55.2156 10.8017 52.187 12.1369 50.2005 15.1004V13.2714C50.2005 12.3751 49.4739 11.6485 48.5775 11.6485H43.5844C42.688 11.6485 41.9614 12.3751 41.9614 13.2714V41.5816C41.9614 42.478 42.688 43.2046 43.5844 43.2046H48.8381C49.7344 43.2046 50.4611 42.478 50.4611 41.5816V26.0099C50.4611 21.3205 53.164 18.9106 57.1045 18.9106C58.1064 18.9106 59.2071 19.0423 60.2283 19.2738C61.2721 19.5105 62.407 18.8766 62.5663 17.8182L63.3217 12.8017C63.4369 12.0365 62.9975 11.2849 62.2421 11.1171C61.3383 10.9164 60.3006 10.8017 59.091 10.8017ZM76.1882 11.6485C77.0845 11.6485 77.8111 12.3751 77.8111 13.2714V41.5816C77.8111 42.478 77.0845 43.2046 76.1882 43.2046H70.9345C70.0381 43.2046 69.3115 42.478 69.3115 41.5816V13.2714C69.3115 12.3751 70.0381 11.6485 70.9345 11.6485H76.1882ZM116.615 13.8626C117.032 12.7982 116.247 11.6485 115.104 11.6485H109.661C108.979 11.6485 108.37 12.0748 108.137 12.7156L100.287 34.249L92.4999 12.7194C92.2675 12.0767 91.6572 11.6485 90.9737 11.6485H85.2506C84.1052 11.6485 83.3202 12.8028 83.7412 13.868L94.9309 42.1782C95.1757 42.7976 95.7742 43.2046 96.4402 43.2046H104.031C104.699 43.2046 105.299 42.7951 105.542 42.1728L116.615 13.8626ZM119.704 27.5079C119.704 17.5754 126.218 10.8017 135.662 10.8017C144.747 10.8017 150.967 17.5428 151 27.3777C151 27.8418 150.985 28.35 150.959 28.8325C150.916 29.6429 150.232 30.2435 149.42 30.2435H128.465C129.376 34.8027 132.568 36.7892 136.573 36.7892C138.831 36.7892 141.244 36.0351 143.299 34.6917C144.029 34.2146 145.016 34.2705 145.604 34.9153L148.446 38.0365C149.048 38.6973 149.007 39.7276 148.295 40.269C144.922 42.8373 140.799 44.0188 136.085 44.0188C126.413 44.0188 119.704 37.4405 119.704 27.5079ZM142.468 24.4468C141.686 20.4086 139.244 18.129 135.596 18.129C131.591 18.129 129.246 20.5389 128.497 24.4468H142.468Z" fill="black"/>
</svg>
